<?xml version="1.0" encoding="UTF-8"?>
<svg id="Capa_1" data-name="Capa 1" xmlns="http://www.w3.org/2000/svg" xmlns:xlink="http://www.w3.org/1999/xlink" viewBox="0 0 441.04 432.04">
  <defs>
    <style>
      .cls-1 {
        fill: url(#Degradado_sin_nombre_789-2);
      }

      .cls-2 {
        fill: url(#Degradado_sin_nombre_789);
      }
    </style>
    <linearGradient id="Degradado_sin_nombre_789" data-name="Degradado sin nombre 789" x1="-44.93" y1="216.02" x2="416.92" y2="216.02" gradientUnits="userSpaceOnUse">
      <stop offset="0" stop-color="#0a2560"/>
      <stop offset="1" stop-color="#009585"/>
    </linearGradient>
    <linearGradient id="Degradado_sin_nombre_789-2" data-name="Degradado sin nombre 789" x1="-44.93" y1="205.41" x2="416.92" y2="205.41" xlink:href="#Degradado_sin_nombre_789"/>
  </defs>
  <path class="cls-2" d="M441.04,205.41C441.04,91.96,349.08,0,235.63,0v73.7c72.74,0,131.71,58.97,131.71,131.71,0,37.32-15.53,71.03-40.48,95l26.12,65.69-76.01-35.59h0c-13,4.29-26.9,6.62-41.35,6.62v73.7c24.89,0,48.75-4.43,70.83-12.54l113.76,33.75-28.85-92.69c30.96-35.96,49.67-82.76,49.67-133.94Z"/>
  <path class="cls-1" d="M0,205.41c0,113.45,91.96,205.41,205.41,205.41V0C91.96,0,0,91.96,0,205.41ZM62.09,228.8c-12.92,0-23.38-10.47-23.38-23.38s10.47-23.39,23.38-23.39,23.39,10.47,23.39,23.39-10.47,23.38-23.39,23.38ZM143.32,228.8c-12.92,0-23.38-10.47-23.38-23.38s10.47-23.39,23.38-23.39,23.39,10.47,23.39,23.39-10.47,23.38-23.39,23.38Z"/>
</svg>