<?xml version="1.0" encoding="UTF-8"?>
<svg id="Capa_1" data-name="Capa 1" xmlns="http://www.w3.org/2000/svg" xmlns:xlink="http://www.w3.org/1999/xlink" viewBox="0 0 1920 432.04">
  <defs>
    <style>
      .cls-1 {
        fill: url(#Degradado_sin_nombre_789-2);
      }

      .cls-2 {
        fill: #fff;
      }

      .cls-3 {
        fill: url(#Degradado_sin_nombre_789);
      }
    </style>
    <linearGradient id="Degradado_sin_nombre_789" data-name="Degradado sin nombre 789" x1="-44.93" y1="216.02" x2="416.92" y2="216.02" gradientUnits="userSpaceOnUse">
      <stop offset="0" stop-color="#0a2560"/>
      <stop offset="1" stop-color="#009585"/>
    </linearGradient>
    <linearGradient id="Degradado_sin_nombre_789-2" data-name="Degradado sin nombre 789" x1="-44.93" y1="205.41" x2="416.92" y2="205.41" xlink:href="#Degradado_sin_nombre_789"/>
  </defs>
  <path class="cls-3" d="M441.04,205.41C441.04,91.96,349.08,0,235.63,0v73.7c72.74,0,131.71,58.97,131.71,131.71,0,37.32-15.53,71.03-40.48,95l26.12,65.69-76.01-35.59h0c-13,4.29-26.9,6.62-41.35,6.62v73.7c24.89,0,48.75-4.43,70.83-12.54l113.76,33.75-28.85-92.69c30.96-35.96,49.67-82.76,49.67-133.94Z"/>
  <path class="cls-1" d="M0,205.41c0,113.45,91.96,205.41,205.41,205.41V0C91.96,0,0,91.96,0,205.41ZM62.09,228.8c-12.92,0-23.38-10.47-23.38-23.38s10.47-23.39,23.38-23.39,23.39,10.47,23.39,23.39-10.47,23.38-23.39,23.38ZM143.32,228.8c-12.92,0-23.38-10.47-23.38-23.38s10.47-23.39,23.38-23.39,23.39,10.47,23.39,23.39-10.47,23.38-23.39,23.38Z"/>
  <g>
    <g>
      <path class="cls-2" d="M894.54,406.76c1.52-.53,2.51-.07,2.96,1.37l.91,3.07c.46,1.44-.08,2.5-1.59,3.19-3.26,1.29-6.66,2.16-10.19,2.62-3.53.46-6.81.68-9.85.68-12.45,0-21.84-3.3-28.18-9.91-6.34-6.6-9.51-16.62-9.51-30.06s3.09-22.75,9.28-29.55c6.19-6.79,15.47-10.19,27.84-10.19,3.19,0,6.41.23,9.68.68,3.26.46,6.49,1.33,9.68,2.62,1.44.68,2.01,1.75,1.71,3.19l-1.03,3.07c-.3,1.44-1.29,1.94-2.96,1.48-2.43-.76-5.09-1.38-7.97-1.88-2.89-.49-5.96-.74-9.22-.74-9.26,0-16,2.54-20.21,7.63-4.21,5.09-6.32,12.87-6.32,23.34,0,11.16,2.22,19.26,6.66,24.31,4.44,5.05,11.59,7.57,21.46,7.57,3.04,0,6.01-.25,8.94-.74,2.92-.49,5.56-1.08,7.91-1.76Z"/>
      <path class="cls-2" d="M915.04,341.41c0-1.52.83-2.28,2.5-2.28h5.24c1.67,0,2.5.76,2.5,2.28v30.17h39.97v-30.17c0-1.52.8-2.28,2.39-2.28h5.35c1.59,0,2.39.76,2.39,2.28v72.87c0,1.52-.8,2.28-2.39,2.28h-5.35c-1.59,0-2.39-.76-2.39-2.28v-34.73h-39.97v34.73c0,1.52-.84,2.28-2.5,2.28h-5.24c-1.67,0-2.5-.76-2.5-2.28v-72.87Z"/>
      <path class="cls-2" d="M991.44,416.56c-1.52,0-2.05-.72-1.59-2.16l27.44-73.1c.53-1.44,1.67-2.16,3.42-2.16h7.63c1.75,0,2.85.72,3.3,2.16l27.44,73.1c.46,1.44-.08,2.16-1.59,2.16h-6.26c-1.29,0-2.13-.53-2.51-1.59l-6.49-17.76h-35.52l-6.49,17.76c-.38,1.06-1.21,1.59-2.51,1.59h-6.26ZM1024.46,349.49l-14.8,39.96h29.6l-14.8-39.96Z"/>
      <path class="cls-2" d="M1084.12,347.56h-22.43c-1.67,0-2.5-.76-2.5-2.28v-3.87c0-1.52.83-2.28,2.5-2.28h54.88c1.67,0,2.51.76,2.51,2.28v3.87c0,1.52-.84,2.28-2.51,2.28h-22.2v66.72c0,1.52-.84,2.28-2.51,2.28h-5.24c-1.67,0-2.51-.76-2.51-2.28v-66.72Z"/>
      <path class="cls-2" d="M1204.24,341.41c.53-1.52,1.63-2.28,3.3-2.28h4.9c1.67,0,2.73.76,3.19,2.28l20.04,64.79,18.56-65.47c.46-1.06,1.25-1.59,2.39-1.59h6.03c1.52,0,2.12.76,1.82,2.28l-21.63,72.87c-.3,1.52-1.33,2.28-3.07,2.28h-8.31c-1.59,0-2.66-.76-3.19-2.28l-18.33-59.32-18.1,59.32c-.46,1.52-1.52,2.28-3.19,2.28h-8.31c-1.67,0-2.73-.76-3.19-2.28l-21.75-72.87c-.3-1.52.3-2.28,1.82-2.28h6.03c1.21,0,2.01.53,2.39,1.59l18.67,65.47,19.93-64.79Z"/>
      <path class="cls-2" d="M1278.59,341.41c0-1.52.83-2.28,2.5-2.28h5.24c1.67,0,2.5.76,2.5,2.28v72.87c0,1.52-.84,2.28-2.5,2.28h-5.24c-1.67,0-2.5-.76-2.5-2.28v-72.87Z"/>
      <path class="cls-2" d="M1328.57,347.56h-22.43c-1.67,0-2.5-.76-2.5-2.28v-3.87c0-1.52.83-2.28,2.5-2.28h54.88c1.67,0,2.51.76,2.51,2.28v3.87c0,1.52-.84,2.28-2.51,2.28h-22.2v66.72c0,1.52-.84,2.28-2.51,2.28h-5.24c-1.67,0-2.51-.76-2.51-2.28v-66.72Z"/>
      <path class="cls-2" d="M1378.21,341.41c0-1.52.83-2.28,2.5-2.28h5.24c1.67,0,2.5.76,2.5,2.28v30.17h39.97v-30.17c0-1.52.8-2.28,2.39-2.28h5.35c1.59,0,2.39.76,2.39,2.28v72.87c0,1.52-.8,2.28-2.39,2.28h-5.35c-1.59,0-2.39-.76-2.39-2.28v-34.73h-39.97v34.73c0,1.52-.84,2.28-2.5,2.28h-5.24c-1.67,0-2.5-.76-2.5-2.28v-72.87Z"/>
      <path class="cls-2" d="M1484.22,416.56c-1.52,0-2.05-.72-1.59-2.16l27.44-73.1c.53-1.44,1.67-2.16,3.42-2.16h7.63c1.75,0,2.85.72,3.3,2.16l27.44,73.1c.46,1.44-.08,2.16-1.59,2.16h-6.26c-1.29,0-2.13-.53-2.51-1.59l-6.49-17.76h-35.52l-6.49,17.76c-.38,1.06-1.21,1.59-2.51,1.59h-6.26ZM1517.23,349.49l-14.8,39.96h29.6l-14.8-39.96Z"/>
      <path class="cls-2" d="M1566.19,341.41c0-1.52.83-2.28,2.5-2.28h5.24c1.67,0,2.5.76,2.5,2.28v72.87c0,1.52-.84,2.28-2.5,2.28h-5.24c-1.67,0-2.5-.76-2.5-2.28v-72.87Z"/>
    </g>
    <rect class="cls-2" x="495.53" y="371.16" width="272.61" height="13.37"/>
    <rect class="cls-2" x="1647.39" y="371.16" width="272.61" height="13.37"/>
  </g>
  <g>
    <path class="cls-2" d="M545.53,290.21c-15.17-8.54-27.09-20.59-35.76-36.12-8.67-15.53-13-33.53-13-54s4.45-38.17,13.37-53.82c8.91-15.65,21.07-27.69,36.48-36.12,15.41-8.43,32.63-12.64,51.66-12.64s36.24,4.22,51.66,12.64c15.41,8.43,27.57,20.47,36.48,36.12,8.91,15.66,13.37,33.6,13.37,53.82s-4.58,38.17-13.73,53.82c-9.16,15.66-21.62,27.76-37.39,36.3-15.78,8.55-33.18,12.83-52.2,12.83s-35.76-4.27-50.93-12.83ZM626.27,259.68c9.27-5.06,16.8-12.64,22.58-22.76,5.78-10.11,8.67-22.39,8.67-36.84s-2.77-26.67-8.31-36.66c-5.54-9.99-12.89-17.52-22.03-22.58-9.16-5.06-19.03-7.59-29.62-7.59s-20.41,2.53-29.44,7.59c-9.03,5.06-16.2,12.59-21.49,22.58-5.3,10-7.95,22.21-7.95,36.66,0,21.44,5.47,37.99,16.44,49.67,10.96,11.68,24.74,17.52,41.36,17.52,10.59,0,20.53-2.53,29.8-7.58Z"/>
    <path class="cls-2" d="M883.1,107.24c12.4,6.5,22.09,16.14,29.08,28.9,6.98,12.77,10.47,28.18,10.47,46.24v117.4h-40.82v-111.26c0-17.82-4.46-31.48-13.36-41-8.91-9.51-21.07-14.27-36.48-14.27s-27.63,4.76-36.66,14.27c-9.03,9.52-13.55,23.18-13.55,41v111.26h-41.18V100.74h41.18v22.76c6.74-8.18,15.35-14.57,25.83-19.14,10.48-4.57,21.61-6.86,33.41-6.86,15.65,0,29.68,3.25,42.08,9.75Z"/>
    <path class="cls-2" d="M1051.97,262.94l56.35-162.19h43.71l-75.86,199.04h-49.13l-75.5-199.04h44.07l56.35,162.19Z"/>
    <path class="cls-2" d="M1364.07,215.61h-152.08c1.2,15.89,7.1,28.66,17.7,38.29,10.59,9.63,23.6,14.45,39.01,14.45,22.15,0,37.8-9.27,46.96-27.82h44.43c-6.02,18.3-16.92,33.29-32.69,44.97-15.78,11.68-35.34,17.52-58.7,17.52-19.03,0-36.07-4.27-51.12-12.83-15.05-8.54-26.86-20.59-35.4-36.12-8.55-15.53-12.83-33.53-12.83-54s4.16-38.47,12.46-54.01c8.31-15.53,19.98-27.51,35.04-35.94,15.05-8.43,32.33-12.64,51.84-12.64s35.52,4.1,50.21,12.28c14.69,8.19,26.13,19.69,34.32,34.5,8.18,14.81,12.28,31.85,12.28,51.11,0,7.47-.49,14.21-1.45,20.23ZM1322.53,182.38c-.24-15.17-5.66-27.33-16.25-36.49-10.6-9.15-23.72-13.73-39.38-13.73-14.21,0-26.37,4.51-36.49,13.55-10.11,9.03-16.14,21.26-18.06,36.66h110.18Z"/>
    <path class="cls-2" d="M1471.17,105.98c9.99-5.65,21.86-8.49,35.58-8.49v42.62h-10.48c-16.14,0-28.36,4.1-36.66,12.28-8.31,8.19-12.46,22.4-12.46,42.63v104.76h-41.18V100.74h41.18v28.9c6.02-10.12,14.02-18,24.02-23.66Z"/>
    <path class="cls-2" d="M1574.84,294.54c-12.41-5.66-22.21-13.36-29.44-23.12-7.23-9.75-11.08-20.65-11.56-32.69h42.62c.72,8.43,4.76,15.48,12.1,21.13,7.34,5.66,16.56,8.49,27.64,8.49s20.53-2.22,26.91-6.68c6.38-4.45,9.57-10.17,9.57-17.16,0-7.46-3.55-13.01-10.65-16.62-7.11-3.61-18.37-7.59-33.77-11.92-14.94-4.09-27.09-8.07-36.49-11.92-9.39-3.85-17.52-9.75-24.38-17.7-6.86-7.95-10.29-18.42-10.29-31.43,0-10.6,3.13-20.29,9.39-29.08,6.26-8.79,15.23-15.71,26.91-20.77,11.68-5.06,25.11-7.59,40.28-7.59,22.63,0,40.88,5.72,54.73,17.16,13.85,11.44,21.25,27.04,22.21,46.78h-41.18c-.72-8.91-4.34-16.01-10.84-21.31-6.5-5.29-15.3-7.95-26.37-7.95s-19.14,2.05-24.92,6.14c-5.78,4.1-8.67,9.52-8.67,16.25,0,5.3,1.93,9.75,5.78,13.36,3.85,3.61,8.55,6.45,14.09,8.49,5.54,2.05,13.73,4.64,24.56,7.76,14.45,3.86,26.31,7.77,35.58,11.74,9.27,3.98,17.28,9.82,24.02,17.52,6.74,7.71,10.23,17.94,10.47,30.71,0,11.32-3.13,21.44-9.39,30.34-6.26,8.91-15.12,15.9-26.55,20.95-11.44,5.06-24.87,7.59-40.28,7.59s-29.68-2.83-42.08-8.49Z"/>
    <path class="cls-2" d="M1918.55,215.61h-152.08c1.2,15.89,7.1,28.66,17.7,38.29,10.59,9.63,23.6,14.45,39.01,14.45,22.15,0,37.8-9.27,46.96-27.82h44.43c-6.02,18.3-16.92,33.29-32.69,44.97-15.78,11.68-35.34,17.52-58.7,17.52-19.03,0-36.07-4.27-51.12-12.83-15.05-8.54-26.86-20.59-35.4-36.12-8.55-15.53-12.83-33.53-12.83-54s4.16-38.47,12.46-54.01c8.31-15.53,19.98-27.51,35.04-35.94,15.05-8.43,32.33-12.64,51.84-12.64s35.52,4.1,50.21,12.28c14.69,8.19,26.13,19.69,34.32,34.5,8.18,14.81,12.28,31.85,12.28,51.11,0,7.47-.49,14.21-1.45,20.23ZM1877.01,182.38c-.24-15.17-5.66-27.33-16.25-36.49-10.6-9.15-23.72-13.73-39.38-13.73-14.21,0-26.37,4.51-36.49,13.55-10.11,9.03-16.14,21.26-18.06,36.66h110.18Z"/>
  </g>
</svg>