<?xml version="1.0" encoding="UTF-8"?>
<svg id="Capa_1" data-name="Capa 1" xmlns="http://www.w3.org/2000/svg" xmlns:xlink="http://www.w3.org/1999/xlink" viewBox="0 0 1920 1080">
  <defs>
    <style>
      .cls-1 {
        fill: url(#Degradado_sin_nombre_789-2);
      }

      .cls-2 {
        fill: #fff;
      }

      .cls-3 {
        fill: url(#Degradado_sin_nombre_789);
      }
    </style>
    <linearGradient id="Degradado_sin_nombre_789" data-name="Degradado sin nombre 789" x1="208.59" y1="540" x2="553.93" y2="540" gradientUnits="userSpaceOnUse">
      <stop offset="0" stop-color="#0a2560"/>
      <stop offset="1" stop-color="#009585"/>
    </linearGradient>
    <linearGradient id="Degradado_sin_nombre_789-2" data-name="Degradado sin nombre 789" x1="208.59" y1="532.07" x2="553.93" y2="532.07" xlink:href="#Degradado_sin_nombre_789"/>
  </defs>
  <path class="cls-3" d="M571.96,532.07c0-84.83-68.76-153.59-153.59-153.59v55.11c54.39,0,98.48,44.09,98.48,98.48,0,27.91-11.61,53.11-30.27,71.03l19.53,49.12-56.83-26.61h0c-9.72,3.21-20.12,4.95-30.92,4.95v55.11c18.61,0,36.45-3.31,52.96-9.37l85.06,25.24-21.57-69.3c23.15-26.89,37.14-61.89,37.14-100.15Z"/>
  <path class="cls-1" d="M242.19,532.07c0,84.83,68.76,153.59,153.59,153.59v-307.18c-84.83,0-153.59,68.76-153.59,153.59ZM288.61,549.55c-9.66,0-17.49-7.83-17.49-17.49s7.83-17.49,17.49-17.49,17.49,7.83,17.49,17.49-7.83,17.49-17.49,17.49ZM349.35,549.55c-9.66,0-17.49-7.83-17.49-17.49s7.83-17.49,17.49-17.49,17.49,7.83,17.49,17.49-7.83,17.49-17.49,17.49Z"/>
  <g>
    <g>
      <path class="cls-2" d="M911.06,682.62c1.13-.4,1.87-.06,2.21,1.02l.68,2.3c.34,1.08-.06,1.87-1.19,2.38-2.44.97-4.98,1.62-7.62,1.96-2.64.34-5.09.51-7.36.51-9.31,0-16.33-2.47-21.07-7.41-4.74-4.94-7.11-12.43-7.11-22.48s2.31-17.01,6.94-22.09c4.63-5.08,11.56-7.62,20.82-7.62,2.38,0,4.8.17,7.24.51,2.44.34,4.85.99,7.24,1.96,1.08.51,1.5,1.31,1.28,2.38l-.77,2.3c-.23,1.08-.97,1.45-2.21,1.11-1.82-.57-3.8-1.03-5.96-1.4-2.16-.37-4.46-.55-6.9-.55-6.93,0-11.96,1.9-15.11,5.7-3.15,3.8-4.72,9.62-4.72,17.45,0,8.34,1.66,14.4,4.98,18.18,3.32,3.78,8.67,5.66,16.05,5.66,2.27,0,4.5-.18,6.68-.55,2.18-.37,4.16-.81,5.92-1.32Z"/>
      <path class="cls-2" d="M926.38,633.76c0-1.13.62-1.7,1.87-1.7h3.92c1.25,0,1.87.57,1.87,1.7v22.56h29.88v-22.56c0-1.13.6-1.7,1.79-1.7h4c1.19,0,1.79.57,1.79,1.7v54.49c0,1.14-.6,1.7-1.79,1.7h-4c-1.19,0-1.79-.57-1.79-1.7v-25.97h-29.88v25.97c0,1.14-.62,1.7-1.87,1.7h-3.92c-1.25,0-1.87-.57-1.87-1.7v-54.49Z"/>
      <path class="cls-2" d="M983.51,689.95c-1.14,0-1.53-.54-1.19-1.62l20.52-54.66c.4-1.08,1.25-1.62,2.55-1.62h5.7c1.3,0,2.13.54,2.47,1.62l20.52,54.66c.34,1.08-.06,1.62-1.19,1.62h-4.68c-.97,0-1.59-.4-1.87-1.19l-4.85-13.28h-26.56l-4.85,13.28c-.28.8-.91,1.19-1.87,1.19h-4.68ZM1008.19,639.8l-11.07,29.88h22.14l-11.07-29.88Z"/>
      <path class="cls-2" d="M1052.8,638.35h-16.77c-1.25,0-1.87-.57-1.87-1.7v-2.89c0-1.13.62-1.7,1.87-1.7h41.04c1.25,0,1.87.57,1.87,1.7v2.89c0,1.14-.63,1.7-1.87,1.7h-16.6v49.89c0,1.14-.63,1.7-1.87,1.7h-3.92c-1.25,0-1.87-.57-1.87-1.7v-49.89Z"/>
      <path class="cls-2" d="M1142.62,633.76c.4-1.13,1.22-1.7,2.47-1.7h3.66c1.25,0,2.04.57,2.38,1.7l14.98,48.44,13.88-48.95c.34-.79.94-1.19,1.79-1.19h4.51c1.13,0,1.59.57,1.36,1.7l-16.18,54.49c-.23,1.14-.99,1.7-2.3,1.7h-6.21c-1.19,0-1.99-.57-2.38-1.7l-13.71-44.36-13.54,44.36c-.34,1.14-1.14,1.7-2.38,1.7h-6.21c-1.25,0-2.04-.57-2.38-1.7l-16.26-54.49c-.23-1.13.23-1.7,1.36-1.7h4.51c.91,0,1.5.4,1.79,1.19l13.96,48.95,14.9-48.44Z"/>
      <path class="cls-2" d="M1198.22,633.76c0-1.13.62-1.7,1.87-1.7h3.92c1.25,0,1.87.57,1.87,1.7v54.49c0,1.14-.62,1.7-1.87,1.7h-3.92c-1.25,0-1.87-.57-1.87-1.7v-54.49Z"/>
      <path class="cls-2" d="M1235.59,638.35h-16.77c-1.25,0-1.87-.57-1.87-1.7v-2.89c0-1.13.62-1.7,1.87-1.7h41.04c1.25,0,1.87.57,1.87,1.7v2.89c0,1.14-.63,1.7-1.87,1.7h-16.6v49.89c0,1.14-.63,1.7-1.87,1.7h-3.92c-1.25,0-1.87-.57-1.87-1.7v-49.89Z"/>
      <path class="cls-2" d="M1272.71,633.76c0-1.13.62-1.7,1.87-1.7h3.92c1.25,0,1.87.57,1.87,1.7v22.56h29.88v-22.56c0-1.13.6-1.7,1.79-1.7h4c1.19,0,1.79.57,1.79,1.7v54.49c0,1.14-.6,1.7-1.79,1.7h-4c-1.19,0-1.79-.57-1.79-1.7v-25.97h-29.88v25.97c0,1.14-.62,1.7-1.87,1.7h-3.92c-1.25,0-1.87-.57-1.87-1.7v-54.49Z"/>
      <path class="cls-2" d="M1351.97,689.95c-1.14,0-1.53-.54-1.19-1.62l20.52-54.66c.4-1.08,1.25-1.62,2.55-1.62h5.7c1.3,0,2.13.54,2.47,1.62l20.52,54.66c.34,1.08-.06,1.62-1.19,1.62h-4.68c-.97,0-1.59-.4-1.87-1.19l-4.85-13.28h-26.56l-4.85,13.28c-.28.8-.91,1.19-1.87,1.19h-4.68ZM1376.66,639.8l-11.07,29.88h22.14l-11.07-29.88Z"/>
      <path class="cls-2" d="M1413.26,633.76c0-1.13.62-1.7,1.87-1.7h3.92c1.25,0,1.87.57,1.87,1.7v54.49c0,1.14-.62,1.7-1.87,1.7h-3.92c-1.25,0-1.87-.57-1.87-1.7v-54.49Z"/>
    </g>
    <rect class="cls-2" x="612.71" y="656" width="203.83" height="10"/>
    <rect class="cls-2" x="1473.98" y="656" width="203.83" height="10"/>
  </g>
  <g>
    <path class="cls-2" d="M650.09,595.47c-11.34-6.39-20.26-15.4-26.74-27.01-6.48-11.61-9.72-25.07-9.72-40.38s3.33-28.54,9.99-40.24c6.66-11.7,15.75-20.7,27.28-27.01,11.52-6.3,24.4-9.45,38.63-9.45s27.1,3.15,38.62,9.45c11.52,6.31,20.62,15.31,27.28,27.01,6.66,11.71,9.99,25.12,9.99,40.24s-3.42,28.54-10.26,40.24c-6.85,11.71-16.16,20.76-27.96,27.14-11.8,6.39-24.81,9.59-39.03,9.59s-26.74-3.2-38.08-9.59ZM710.46,572.65c6.93-3.78,12.56-9.45,16.88-17.02,4.32-7.56,6.48-16.74,6.48-27.55s-2.07-19.94-6.21-27.42c-4.14-7.47-9.63-13.1-16.48-16.88-6.85-3.78-14.23-5.67-22.15-5.67s-15.26,1.89-22.01,5.67c-6.75,3.78-12.11,9.41-16.07,16.88-3.96,7.47-5.94,16.61-5.94,27.42,0,16.03,4.09,28.41,12.29,37.14,8.19,8.73,18.5,13.1,30.93,13.1,7.92,0,15.35-1.89,22.28-5.67Z"/>
    <path class="cls-2" d="M902.5,458.67c9.27,4.86,16.52,12.07,21.74,21.61,5.22,9.55,7.83,21.07,7.83,34.57v87.78h-30.52v-83.19c0-13.32-3.33-23.54-9.99-30.66-6.66-7.11-15.76-10.67-27.28-10.67s-20.66,3.56-27.42,10.67c-6.75,7.12-10.13,17.33-10.13,30.66v83.19h-30.79v-148.82h30.79v17.02c5.04-6.12,11.48-10.89,19.31-14.31,7.83-3.42,16.16-5.13,24.98-5.13,11.7,0,22.19,2.43,31.47,7.29Z"/>
    <path class="cls-2" d="M1028.77,575.08l42.14-121.28h32.68l-56.72,148.82h-36.73l-56.45-148.82h32.95l42.14,121.28Z"/>
    <path class="cls-2" d="M1262.13,539.7h-113.71c.9,11.88,5.31,21.43,13.23,28.63,7.92,7.2,17.65,10.8,29.17,10.8,16.56,0,28.27-6.93,35.11-20.8h33.22c-4.5,13.69-12.65,24.89-24.44,33.63-11.8,8.73-26.43,13.1-43.89,13.1-14.23,0-26.97-3.2-38.22-9.59-11.26-6.39-20.08-15.4-26.47-27.01-6.39-11.61-9.59-25.07-9.59-40.38s3.11-28.77,9.32-40.38c6.21-11.61,14.94-20.57,26.2-26.87,11.25-6.3,24.17-9.45,38.76-9.45s26.56,3.06,37.54,9.18c10.98,6.12,19.54,14.72,25.66,25.8,6.12,11.07,9.18,23.81,9.18,38.22,0,5.58-.36,10.63-1.08,15.13ZM1231.07,514.85c-.18-11.34-4.23-20.44-12.15-27.28-7.93-6.84-17.74-10.26-29.44-10.26-10.63,0-19.72,3.38-27.28,10.13-7.56,6.75-12.07,15.89-13.51,27.42h82.38Z"/>
    <path class="cls-2" d="M1342.21,457.72c7.47-4.23,16.34-6.35,26.61-6.35v31.87h-7.83c-12.07,0-21.2,3.06-27.42,9.18-6.21,6.12-9.32,16.75-9.32,31.87v78.33h-30.79v-148.82h30.79v21.61c4.5-7.56,10.49-13.46,17.96-17.69Z"/>
    <path class="cls-2" d="M1419.73,598.71c-9.28-4.23-16.61-9.99-22.01-17.29-5.4-7.29-8.28-15.44-8.64-24.44h31.87c.54,6.31,3.56,11.57,9.05,15.8,5.49,4.23,12.38,6.35,20.66,6.35s15.35-1.66,20.12-5c4.77-3.33,7.16-7.6,7.16-12.83,0-5.58-2.66-9.72-7.97-12.42-5.31-2.7-13.73-5.67-25.25-8.91-11.17-3.06-20.26-6.03-27.28-8.91-7.02-2.88-13.1-7.29-18.23-13.23-5.13-5.94-7.7-13.78-7.7-23.5,0-7.92,2.34-15.17,7.02-21.74,4.68-6.57,11.39-11.75,20.12-15.53,8.73-3.78,18.77-5.67,30.12-5.67,16.92,0,30.56,4.28,40.92,12.83,10.35,8.56,15.89,20.22,16.61,34.98h-30.79c-.54-6.66-3.24-11.97-8.1-15.94-4.86-3.96-11.44-5.94-19.72-5.94s-14.31,1.53-18.64,4.59c-4.32,3.06-6.48,7.12-6.48,12.15,0,3.96,1.44,7.29,4.32,9.99,2.88,2.7,6.39,4.82,10.53,6.35,4.14,1.53,10.26,3.47,18.37,5.81,10.8,2.88,19.67,5.81,26.61,8.78,6.93,2.97,12.92,7.34,17.96,13.1,5.04,5.77,7.65,13.42,7.83,22.96,0,8.47-2.34,16.03-7.02,22.69-4.68,6.66-11.3,11.89-19.85,15.67-8.56,3.78-18.6,5.67-30.12,5.67s-22.19-2.12-31.47-6.35Z"/>
    <path class="cls-2" d="M1676.73,539.7h-113.71c.9,11.88,5.31,21.43,13.23,28.63,7.92,7.2,17.65,10.8,29.17,10.8,16.56,0,28.27-6.93,35.11-20.8h33.22c-4.5,13.69-12.65,24.89-24.44,33.63-11.8,8.73-26.43,13.1-43.89,13.1-14.23,0-26.97-3.2-38.22-9.59-11.26-6.39-20.08-15.4-26.47-27.01-6.39-11.61-9.59-25.07-9.59-40.38s3.11-28.77,9.32-40.38c6.21-11.61,14.94-20.57,26.2-26.87,11.25-6.3,24.17-9.45,38.76-9.45s26.56,3.06,37.54,9.18c10.98,6.12,19.54,14.72,25.66,25.8,6.12,11.07,9.18,23.81,9.18,38.22,0,5.58-.36,10.63-1.08,15.13ZM1645.67,514.85c-.18-11.34-4.23-20.44-12.15-27.28-7.93-6.84-17.74-10.26-29.44-10.26-10.63,0-19.72,3.38-27.28,10.13-7.56,6.75-12.07,15.89-13.51,27.42h82.38Z"/>
  </g>
</svg>